HIERARCHY
ROOT Hips
{
	OFFSET 0.000000 71.427986 0.000000
	CHANNELS 6 Xposition Yposition Zposition Xrotation Yrotation Zrotation
	JOINT Pelvis
	{
		OFFSET 0.000000 0.000000 0.000000
		CHANNELS 3 Xrotation Yrotation Zrotation
		JOINT LeftUpLeg
		{
			OFFSET 6.797100 -2.508499 -1.318700
			CHANNELS 3 Xrotation Yrotation Zrotation
			JOINT LeftLeg
			{
				OFFSET 0.069008 -29.241863 0.690200
				CHANNELS 3 Xrotation Yrotation Zrotation
				JOINT LeftFoot
				{
					OFFSET -0.069008 -29.568123 -0.266800
					CHANNELS 3 Xrotation Yrotation Zrotation
					JOINT LeftToeBase
					{
						OFFSET 3.145500 -8.631000 16.059900
						CHANNELS 3 Xrotation Yrotation Zrotation
						End Site
						{
							OFFSET 0.000000 18.501587 0.000000
						}
					}
				}
			}
			JOINT Left_ShortSleeve
			{
				OFFSET 0.265923 -10.480953 1.153800
				CHANNELS 3 Xrotation Yrotation Zrotation
				End Site
				{
					OFFSET 1.725763 19.823879 0.000000
				}
			}
		}
		JOINT RightUpLeg
		{
			OFFSET -6.797100 -2.508499 -1.318700
			CHANNELS 3 Xrotation Yrotation Zrotation
			JOINT RightLeg
			{
				OFFSET -0.082453 -29.241932 0.688000
				CHANNELS 3 Xrotation Yrotation Zrotation
				JOINT RightFoot
				{
					OFFSET 0.082453 -29.568058 -0.264600
					CHANNELS 3 Xrotation Yrotation Zrotation
					JOINT RightToeBase
					{
						OFFSET -3.115300 -8.682800 16.113400
						CHANNELS 3 Xrotation Yrotation Zrotation
						End Site
						{
							OFFSET 0.000000 18.567114 0.000000
						}
					}
				}
			}
			JOINT Right_ShortSleeve
			{
				OFFSET -0.265923 -10.480953 1.153800
				CHANNELS 3 Xrotation Yrotation Zrotation
				End Site
				{
					OFFSET -1.725766 19.823910 0.000000
				}
			}
		}
	}
	JOINT Spine
	{
		OFFSET 0.000000 13.368103 0.470500
		CHANNELS 3 Xrotation Yrotation Zrotation
		JOINT Spine1
		{
			OFFSET 0.147000 13.837402 0.538800
			CHANNELS 3 Xrotation Yrotation Zrotation
			JOINT Spine2
			{
				OFFSET 0.168000 16.242897 -1.435500
				CHANNELS 3 Xrotation Yrotation Zrotation
				JOINT Neck
				{
					OFFSET 0.217200 18.631500 -1.679100
					CHANNELS 3 Xrotation Yrotation Zrotation
					JOINT Head
					{
						OFFSET 0.000000 6.599396 1.385900
						CHANNELS 3 Xrotation Yrotation Zrotation
						JOINT Hat
						{
							OFFSET -0.532200 27.220596 -10.096100
							CHANNELS 3 Xrotation Yrotation Zrotation
							End Site
							{
								OFFSET 0.000000 22.029861 0.000000
							}
						}
						JOINT HairD
						{
							OFFSET -10.777400 17.437393 -1.325900
							CHANNELS 3 Xrotation Yrotation Zrotation
							JOINT HairD1
							{
								OFFSET -3.290299 -11.051193 1.062200
								CHANNELS 3 Xrotation Yrotation Zrotation
								End Site
								{
									OFFSET 0.000000 11.579437 0.000000
								}
							}
						}
						JOINT HairB
						{
							OFFSET -10.777400 17.437393 1.467900
							CHANNELS 3 Xrotation Yrotation Zrotation
							JOINT HairB1
							{
								OFFSET -1.561200 -12.956299 3.590200
								CHANNELS 3 Xrotation Yrotation Zrotation
								End Site
								{
									OFFSET 0.000000 13.534866 0.000000
								}
							}
						}
						JOINT HairA
						{
							OFFSET 9.713100 17.437393 1.467900
							CHANNELS 3 Xrotation Yrotation Zrotation
							JOINT HairA1
							{
								OFFSET 1.561200 -12.956299 3.590200
								CHANNELS 3 Xrotation Yrotation Zrotation
								End Site
								{
									OFFSET 0.000000 13.534866 0.000000
								}
							}
						}
						JOINT HairC
						{
							OFFSET 9.713100 17.437393 -1.325900
							CHANNELS 3 Xrotation Yrotation Zrotation
							JOINT HairC1
							{
								OFFSET 3.290300 -11.051193 1.062200
								CHANNELS 3 Xrotation Yrotation Zrotation
								End Site
								{
									OFFSET 0.000000 11.579437 0.000000
								}
							}
						}
					}
				}
				JOINT LeftShoulder
				{
					OFFSET 5.101800 15.108002 -2.763700
					CHANNELS 3 Xrotation Yrotation Zrotation
					JOINT LeftArm
					{
						OFFSET 9.825497 2.506317 -1.597400
						CHANNELS 3 Xrotation Yrotation Zrotation
						JOINT LeftForeArm
						{
							OFFSET 21.966244 0.000000 0.000000
							CHANNELS 3 Xrotation Yrotation Zrotation
							JOINT LeftHand
							{
								OFFSET 33.879036 0.000000 0.000000
								CHANNELS 3 Xrotation Yrotation Zrotation
								JOINT LeftHandThumb1
								{
									OFFSET 6.715286 -2.359680 3.363841
									CHANNELS 3 Xrotation Yrotation Zrotation
									JOINT LeftHandThumb2
									{
										OFFSET 2.507072 -1.447464 1.447461
										CHANNELS 3 Xrotation Yrotation Zrotation
										JOINT LeftHandThumb3
										{
											OFFSET 2.898338 -1.673355 1.673357
											CHANNELS 3 Xrotation Yrotation Zrotation
											End Site
											{
												OFFSET -0.295959 3.727692 -0.131651
											}
										}
									}
								}
								JOINT LeftHandIndex1
								{
									OFFSET 14.190811 -0.254547 3.840278
									CHANNELS 3 Xrotation Yrotation Zrotation
									JOINT LeftHandIndex2
									{
										OFFSET 3.551727 0.000000 -0.000000
										CHANNELS 3 Xrotation Yrotation Zrotation
										JOINT LeftHandIndex3
										{
											OFFSET 2.894196 0.000000 0.000000
											CHANNELS 3 Xrotation Yrotation Zrotation
											End Site
											{
												OFFSET -1.000603 2.690872 0.366626
											}
										}
									}
								}
								JOINT LeftHandMiddle1
								{
									OFFSET 13.776489 0.000000 0.000000
									CHANNELS 3 Xrotation Yrotation Zrotation
									JOINT LeftHandMiddle2
									{
										OFFSET 3.438232 0.000000 0.000000
										CHANNELS 3 Xrotation Yrotation Zrotation
										JOINT LeftHandMiddle3
										{
											OFFSET 3.691551 0.000000 0.000000
											CHANNELS 3 Xrotation Yrotation Zrotation
											End Site
											{
												OFFSET -1.082298 3.499527 0.457670
											}
										}
									}
								}
								JOINT LeftHandRing1
								{
									OFFSET 13.966164 -0.268127 -3.067488
									CHANNELS 3 Xrotation Yrotation Zrotation
									JOINT LeftHandRing2
									{
										OFFSET 3.162567 0.000000 0.000000
										CHANNELS 3 Xrotation Yrotation Zrotation
										JOINT LeftHandRing3
										{
											OFFSET 3.324348 0.000000 0.000000
											CHANNELS 3 Xrotation Yrotation Zrotation
											End Site
											{
												OFFSET -0.861900 3.184998 0.405154
											}
										}
									}
								}
								JOINT LeftHandPinky1
								{
									OFFSET 13.131393 -0.168503 -5.746925
									CHANNELS 3 Xrotation Yrotation Zrotation
									JOINT LeftHandPinky2
									{
										OFFSET 2.849182 0.000000 0.000000
										CHANNELS 3 Xrotation Yrotation Zrotation
										JOINT LeftHandPinky3
										{
											OFFSET 2.805038 0.000000 0.000000
											CHANNELS 3 Xrotation Yrotation Zrotation
											End Site
											{
												OFFSET -0.882500 2.642609 0.325652
											}
										}
									}
								}
							}
							JOINT Left_Sleeve
							{
								OFFSET 6.592125 -0.646545 0.805568
								CHANNELS 3 Xrotation Yrotation Zrotation
								End Site
								{
									OFFSET -0.000179 20.275787 -0.000000
								}
							}
						}
					}
				}
				JOINT RightShoulder
				{
					OFFSET -5.731700 15.108002 -2.763700
					CHANNELS 3 Xrotation Yrotation Zrotation
					JOINT RightArm
					{
						OFFSET -9.825497 2.506317 -1.597400
						CHANNELS 3 Xrotation Yrotation Zrotation
						JOINT RightForeArm
						{
							OFFSET -21.966242 0.000000 0.000000
							CHANNELS 3 Xrotation Yrotation Zrotation
							JOINT RightHand
							{
								OFFSET -33.879032 0.000000 0.000000
								CHANNELS 3 Xrotation Yrotation Zrotation
								JOINT RightHandThumb1
								{
									OFFSET -6.715286 -2.359680 3.363841
									CHANNELS 3 Xrotation Yrotation Zrotation
									JOINT RightHandThumb2
									{
										OFFSET -2.507072 -1.447464 1.447461
										CHANNELS 3 Xrotation Yrotation Zrotation
										JOINT RightHandThumb3
										{
											OFFSET -2.898338 -1.673355 1.673357
											CHANNELS 3 Xrotation Yrotation Zrotation
											End Site
											{
												OFFSET 0.295959 3.727692 -0.131651
											}
										}
									}
								}
								JOINT RightHandIndex1
								{
									OFFSET -14.190811 -0.254547 3.840278
									CHANNELS 3 Xrotation Yrotation Zrotation
									JOINT RightHandIndex2
									{
										OFFSET -3.551727 0.000000 -0.000000
										CHANNELS 3 Xrotation Yrotation Zrotation
										JOINT RightHandIndex3
										{
											OFFSET -2.894196 0.000000 0.000000
											CHANNELS 3 Xrotation Yrotation Zrotation
											End Site
											{
												OFFSET 1.000603 2.690872 0.366626
											}
										}
									}
								}
								JOINT RightHandMiddle1
								{
									OFFSET -13.776489 0.000000 0.000000
									CHANNELS 3 Xrotation Yrotation Zrotation
									JOINT RightHandMiddle2
									{
										OFFSET -3.438232 0.000000 0.000000
										CHANNELS 3 Xrotation Yrotation Zrotation
										JOINT RightHandMiddle3
										{
											OFFSET -3.691551 0.000000 0.000000
											CHANNELS 3 Xrotation Yrotation Zrotation
											End Site
											{
												OFFSET 1.082298 3.499527 0.457670
											}
										}
									}
								}
								JOINT RightHandRing1
								{
									OFFSET -13.966164 -0.268127 -3.067488
									CHANNELS 3 Xrotation Yrotation Zrotation
									JOINT RightHandRing2
									{
										OFFSET -3.162567 0.000000 0.000000
										CHANNELS 3 Xrotation Yrotation Zrotation
										JOINT RightHandRing3
										{
											OFFSET -3.324348 0.000000 0.000000
											CHANNELS 3 Xrotation Yrotation Zrotation
											End Site
											{
												OFFSET 0.861900 3.184998 0.405154
											}
										}
									}
								}
								JOINT RightHandPinky1
								{
									OFFSET -13.131393 -0.168503 -5.746925
									CHANNELS 3 Xrotation Yrotation Zrotation
									JOINT RightHandPinky2
									{
										OFFSET -2.849182 0.000000 0.000000
										CHANNELS 3 Xrotation Yrotation Zrotation
										JOINT RightHandPinky3
										{
											OFFSET -2.805038 0.000000 0.000000
											CHANNELS 3 Xrotation Yrotation Zrotation
											End Site
											{
												OFFSET 0.882500 2.642609 0.325652
											}
										}
									}
								}
							}
							JOINT Right_Sleeve
							{
								OFFSET -6.592125 -0.646545 0.805568
								CHANNELS 3 Xrotation Yrotation Zrotation
								End Site
								{
									OFFSET 0.000179 20.275787 -0.000000
								}
							}
						}
					}
				}
				JOINT Bind_Right_JacketString
				{
					OFFSET -3.534800 11.969597 7.200700
					CHANNELS 3 Xrotation Yrotation Zrotation
					JOINT Bind_Right_JacketString1
					{
						OFFSET -0.319900 -6.102600 2.794100
						CHANNELS 3 Xrotation Yrotation Zrotation
						End Site
						{
							OFFSET 0.000000 6.719452 0.000000
						}
					}
				}
				JOINT Bind_Left_JacketString
				{
					OFFSET 2.904800 11.969597 7.200700
					CHANNELS 3 Xrotation Yrotation Zrotation
					JOINT Bind_Left_JacketString1
					{
						OFFSET 0.364800 -5.904503 3.186800
						CHANNELS 3 Xrotation Yrotation Zrotation
						End Site
						{
							OFFSET 0.000000 6.719513 0.000000
						}
					}
				}
				JOINT HairE
				{
					OFFSET 5.915200 17.612701 -11.592200
					CHANNELS 3 Xrotation Yrotation Zrotation
					JOINT HairE1
					{
						OFFSET 0.289200 -7.171898 -1.284500
						CHANNELS 3 Xrotation Yrotation Zrotation
						End Site
						{
							OFFSET 0.000000 7.291756 0.000000
						}
					}
				}
				JOINT HairF
				{
					OFFSET -0.864800 17.612701 -11.592200
					CHANNELS 3 Xrotation Yrotation Zrotation
					JOINT HairF1
					{
						OFFSET 0.000000 -14.087097 -2.127501
						CHANNELS 3 Xrotation Yrotation Zrotation
						End Site
						{
							OFFSET 0.000000 14.246841 0.000000
						}
					}
				}
				JOINT HairG
				{
					OFFSET -8.087700 17.612701 -11.592200
					CHANNELS 3 Xrotation Yrotation Zrotation
					JOINT HairG1
					{
						OFFSET -0.293600 -6.081398 -0.910100
						CHANNELS 3 Xrotation Yrotation Zrotation
						End Site
						{
							OFFSET 0.000000 6.156120 0.000000
						}
					}
				}
			}
		}
	}
	JOINT Pouch
	{
		OFFSET 0.000000 4.394501 10.847300
		CHANNELS 3 Xrotation Yrotation Zrotation
		End Site
		{
			OFFSET 0.000000 21.880577 0.000000
		}
	}
	JOINT Bag
	{
		OFFSET -13.229000 4.813004 -0.593300
		CHANNELS 3 Xrotation Yrotation Zrotation
		End Site
		{
			OFFSET 0.000000 21.880577 0.000000
		}
	}
	JOINT OccupyGuyFacialAnim_Joint
	{
		OFFSET 1.000000 -70.206398 -1.655000
		CHANNELS 3 Xrotation Yrotation Zrotation
		End Site
		{
			OFFSET 0.000000 21.880577 0.000000
		}
	}
}
MOTION
Frames: 4
Frame Time: 0.016667
-0.147634 69.215744 1.684425 -0.587392 -0.366001 -0.300232 0.000000 0.000000 -0.000000 -9.893957 5.313841 7.581146 27.150116 3.425839 1.292918 -16.046324 2.021655 -9.063640 0.000000 0.000001 -0.000000 -0.000000 0.000001 -0.000000 -9.141050 1.229863 -1.807454 27.639931 -1.752139 -2.678916 -17.809013 -0.935544 5.374014 0.000000 -0.000000 -0.000000 -0.000001 -0.000000 -0.000000 0.361186 -0.183616 0.252210 -1.750145 -0.199001 0.196420 -1.750109 -0.188404 0.203701 -0.289762 -0.205837 -0.385588 4.702786 -2.136756 3.065841 -0.000000 0.000000 -0.000000 -0.000000 0.000000 -0.000000 -0.000000 0.000000 -0.000000 -0.000000 0.000000 -0.000000 -0.000000 0.000000 -0.000000 -0.000000 0.000000 -0.000000 -0.000000 0.000000 -0.000000 -0.000000 0.000000 -0.000000 -0.000000 0.000000 -0.000000 0.993407 -13.202429 -11.017490 16.778887 -19.384222 -67.597378 -0.000004 -17.727274 0.000010 -41.262228 6.787875 3.627180 -5.917901 16.359051 4.033994 -3.203468 11.997057 3.444662 0.000001 0.000002 -0.000001 0.260632 1.880093 -15.783526 0.260635 1.880089 -15.783619 0.000002 -0.000001 -0.000000 0.523425 2.637847 -22.443076 0.524905 2.641402 -22.475127 0.000001 0.000000 0.000002 0.898046 3.405123 -29.540978 0.898044 3.405139 -29.540968 -0.000001 0.000000 -0.000002 2.843605 6.562541 -31.481899 1.050193 -0.422461 -32.253594 0.000000 0.000000 -0.000001 0.000002 -0.000001 0.000000 1.651817 9.058837 10.503889 6.412940 25.534621 64.587519 0.000012 12.370150 -0.000021 -21.507974 -14.216155 -3.290082 7.843965 -10.746977 2.716240 0.430937 -17.559388 -11.583981 -0.000000 0.000001 0.000001 0.528294 -2.663089 22.437127 0.528295 -2.663080 22.437125 0.000002 0.000000 -0.000003 1.160563 -3.851154 33.530109 1.160571 -3.851140 33.530112 -0.000001 0.000001 0.000001 1.843398 -4.719900 42.648418 1.843407 -4.719928 42.648439 -0.000000 -0.000002 -0.000001 1.994904 -4.878723 44.459101 1.994916 -4.878727 44.459122 -0.000000 0.000002 0.000004 0.000001 -0.000001 0.000001 -0.000000 0.000000 -0.000000 -0.000000 0.000000 -0.000000 -0.000000 0.000000 0.000000 -0.000000 0.000000 0.000000 -0.000000 0.000000 -0.000000 -0.000000 0.000000 -0.000000 -0.000000 0.000000 0.000000 -0.000000 0.000000 0.000000 -0.000000 0.000000 -0.000000 -0.000000 0.000000 -0.000000 0.000000 0.000000 -0.000000 0.000000 0.000000 -0.000000 0.000000 0.000000 -0.000000 
-0.129496 69.220345 1.673735 -0.575623 -0.347858 -0.264577 0.000000 0.000000 -0.000000 -9.907936 5.350939 7.511699 27.122027 3.389419 1.338281 -16.022698 2.021713 -9.077547 -0.000000 -0.000000 -0.000000 0.000000 0.000000 -0.000001 -9.160461 1.200494 -1.889568 27.637153 -1.747962 -2.632773 -17.795038 -0.941056 5.369347 -0.000000 -0.000000 0.000000 0.000001 0.000000 -0.000000 0.374983 -0.162773 0.230575 -1.755795 -0.176235 0.190827 -1.755716 -0.166635 0.197366 -0.262665 -0.209938 -0.406779 4.752852 -2.162301 3.061369 0.000000 0.000000 -0.000000 0.000000 0.000000 -0.000000 0.000000 0.000000 -0.000000 0.000000 0.000000 -0.000000 0.000000 0.000000 -0.000000 0.000000 0.000000 -0.000000 0.000000 0.000000 -0.000000 0.000000 0.000000 -0.000000 0.000000 0.000000 -0.000000 0.994043 -13.267615 -11.041538 16.766357 -19.385904 -67.571301 0.000007 -17.712817 0.000008 -41.267118 6.584306 3.801895 -5.917895 16.359048 4.033981 -3.203482 11.997058 3.444709 0.000000 -0.000000 0.000001 0.260632 1.880094 -15.783536 0.260632 1.880089 -15.783606 0.000003 0.000000 0.000002 0.523426 2.637846 -22.443071 0.524902 2.641404 -22.475115 0.000000 0.000001 -0.000001 0.898046 3.405124 -29.540998 0.898043 3.405142 -29.540964 -0.000000 0.000001 -0.000001 2.843606 6.562540 -31.481896 1.050196 -0.422460 -32.253622 0.000000 0.000000 0.000001 -0.000001 -0.000001 -0.000000 1.651098 9.037776 10.513389 6.473517 25.519856 64.541415 -0.000003 12.373795 -0.000002 -21.518699 -14.342742 -3.277702 7.843961 -10.746969 2.716244 0.430941 -17.559399 -11.584002 0.000001 0.000002 0.000003 0.528297 -2.663094 22.437117 0.528290 -2.663077 22.437129 0.000001 -0.000000 0.000002 1.160567 -3.851155 33.530106 1.160569 -3.851149 33.530095 -0.000001 -0.000000 0.000004 1.843404 -4.719901 42.648429 1.843403 -4.719925 42.648425 -0.000000 0.000000 -0.000000 1.994911 -4.878725 44.459088 1.994910 -4.878717 44.459136 -0.000001 0.000001 0.000001 -0.000003 -0.000002 0.000002 0.000000 0.000000 -0.000000 -0.000000 0.000000 0.000000 0.000000 0.000000 -0.000000 0.000000 0.000000 -0.000000 0.000000 0.000000 -0.000000 -0.000000 0.000000 0.000000 0.000000 0.000000 -0.000000 0.000000 0.000000 -0.000000 0.000000 0.000000 -0.000000 -0.000000 0.000000 0.000000 0.000000 0.000000 -0.000000 0.000000 0.000000 -0.000000 0.000000 0.000000 -0.000000 
-0.101048 69.223442 1.663671 -0.563359 -0.334521 -0.214455 0.000000 0.000000 -0.000000 -9.922724 5.392847 7.415717 27.104697 3.357398 1.386366 -16.009094 2.020449 -9.087650 -0.000000 0.000000 -0.000000 -0.000001 0.000000 -0.000000 -9.190571 1.161141 -2.008509 27.655344 -1.716049 -2.573130 -17.791755 -0.948167 5.363697 0.000000 0.000000 -0.000000 0.000001 0.000000 -0.000001 0.389046 -0.141481 0.205649 -1.758987 -0.152911 0.185722 -1.758853 -0.144486 0.191302 -0.234934 -0.223743 -0.429562 4.682464 -2.228106 3.016739 -0.000000 -0.000000 -0.000000 -0.000000 -0.000000 -0.000000 -0.000000 -0.000000 -0.000000 -0.000000 -0.000000 -0.000000 -0.000000 -0.000000 -0.000000 -0.000000 -0.000000 -0.000000 -0.000000 -0.000000 -0.000000 -0.000000 -0.000000 -0.000000 -0.000000 -0.000000 -0.000000 0.994574 -13.331119 -11.067194 16.711234 -19.428798 -67.559402 0.000006 -17.694298 -0.000000 -41.232834 6.340761 3.993475 -5.917900 16.359034 4.033989 -3.203473 11.997061 3.444677 0.000000 -0.000002 -0.000001 0.260631 1.880091 -15.783524 0.260634 1.880093 -15.783608 0.000000 0.000001 0.000002 0.523428 2.637844 -22.443074 0.524902 2.641402 -22.475113 0.000001 0.000000 0.000006 0.898047 3.405120 -29.540957 0.898045 3.405137 -29.540940 -0.000000 0.000000 -0.000002 2.843605 6.562540 -31.481862 1.050195 -0.422460 -32.253622 -0.000000 -0.000000 0.000003 0.000003 0.000000 0.000000 1.655697 9.081049 10.518681 6.559968 25.463664 64.487313 0.000002 12.345261 -0.000004 -21.449301 -14.196719 -3.323720 7.843961 -10.746971 2.716253 0.430929 -17.559399 -11.584003 -0.000003 -0.000001 0.000003 0.528293 -2.663094 22.437098 0.528294 -2.663073 22.437139 0.000000 0.000000 -0.000001 1.160565 -3.851152 33.530109 1.160562 -3.851148 33.530078 -0.000000 -0.000000 0.000003 1.843399 -4.719898 42.648415 1.843395 -4.719925 42.648425 0.000000 -0.000003 -0.000002 1.994907 -4.878725 44.459098 1.994914 -4.878721 44.459132 0.000000 -0.000000 0.000000 0.000001 -0.000002 0.000001 0.000000 -0.000000 -0.000000 0.000000 -0.000000 -0.000000 0.000000 -0.000000 -0.000000 0.000000 -0.000000 -0.000000 0.000000 -0.000000 -0.000000 0.000000 -0.000000 -0.000000 0.000000 -0.000000 -0.000000 0.000000 -0.000000 -0.000000 0.000000 -0.000000 -0.000000 0.000000 -0.000000 -0.000000 0.000000 0.000000 -0.000000 0.000000 0.000000 -0.000000 0.000000 0.000000 -0.000000 
-0.064259 69.230652 1.650303 -0.547733 -0.349166 -0.150562 0.000000 -0.000000 0.000000 -9.916067 5.420036 7.312987 27.053946 3.364123 1.388817 -15.978633 2.018461 -9.078157 -0.000000 0.000000 0.000000 -0.000000 -0.000000 0.000000 -9.221077 1.164816 -2.154618 27.653083 -1.669653 -2.498895 -17.770773 -0.955465 5.359432 -0.000000 -0.000000 -0.000000 -0.000001 0.000000 0.000000 0.417307 -0.113346 0.173530 -1.760835 -0.122205 0.183156 -1.760679 -0.115203 0.187763 -0.200768 -0.240773 -0.429505 4.617259 -2.258966 2.936578 0.000000 -0.000000 -0.000000 0.000000 -0.000000 -0.000000 0.000000 -0.000000 -0.000000 0.000000 -0.000000 -0.000000 -0.000000 -0.000000 -0.000000 0.000000 -0.000000 -0.000000 -0.000000 -0.000000 -0.000000 0.000000 -0.000000 -0.000000 0.000000 -0.000000 -0.000000 0.993603 -13.360151 -11.115196 16.611232 -19.504169 -67.520436 -0.000013 -17.678773 -0.000009 -41.176540 6.072788 4.205072 -5.917900 16.359044 4.033991 -3.203471 11.997059 3.444667 -0.000002 -0.000000 -0.000001 0.260633 1.880090 -15.783522 0.260634 1.880090 -15.783602 0.000001 0.000000 -0.000002 0.523426 2.637846 -22.443068 0.524903 2.641401 -22.475103 0.000001 0.000001 -0.000003 0.898046 3.405118 -29.540957 0.898044 3.405141 -29.540971 -0.000000 0.000000 0.000000 2.843603 6.562538 -31.481875 1.050195 -0.422458 -32.253635 -0.000000 -0.000001 0.000001 -0.000000 -0.000001 -0.000000 1.663817 9.137676 10.542180 6.627466 25.453467 64.389272 0.000008 12.280771 -0.000005 -21.391203 -14.081757 -3.324059 7.843964 -10.746978 2.716236 0.430951 -17.559395 -11.583953 -0.000001 0.000003 -0.000001 0.528291 -2.663094 22.437132 0.528292 -2.663081 22.437112 -0.000000 0.000001 -0.000001 1.160563 -3.851152 33.530116 1.160562 -3.851142 33.530099 0.000001 0.000000 -0.000001 1.843396 -4.719898 42.648429 1.843402 -4.719927 42.648429 -0.000000 -0.000001 0.000002 1.994904 -4.878722 44.459115 1.994912 -4.878726 44.459122 -0.000001 0.000002 -0.000001 0.000001 0.000000 -0.000001 0.000000 0.000000 -0.000000 0.000000 0.000000 -0.000000 0.000000 0.000000 -0.000000 0.000000 0.000000 -0.000000 0.000000 0.000000 -0.000000 0.000000 0.000000 -0.000000 0.000000 0.000000 -0.000000 0.000000 0.000000 -0.000000 0.000000 0.000000 -0.000000 0.000000 0.000000 -0.000000 0.000000 -0.000000 0.000000 0.000000 -0.000000 0.000000 0.000000 -0.000000 0.000000 
